<?xml version="1.0" encoding="utf-8" standalone="no"?>
<!DOCTYPE svg PUBLIC "-//W3C//DTD SVG 1.1//EN"
  "http://www.w3.org/Graphics/SVG/1.1/DTD/svg11.dtd">
<svg xmlns:xlink="http://www.w3.org/1999/xlink" width="728.397938pt" height="440.39952pt" viewBox="0 0 728.397938 440.39952" xmlns="http://www.w3.org/2000/svg" version="1.1">
 <metadata>
  <rdf:RDF xmlns:dc="http://purl.org/dc/elements/1.1/" xmlns:cc="http://creativecommons.org/ns#" xmlns:rdf="http://www.w3.org/1999/02/22-rdf-syntax-ns#">
   <cc:Work>
    <dc:type rdf:resource="http://purl.org/dc/dcmitype/StillImage"/>
    <dc:date>2026-03-02T16:17:46.105639</dc:date>
    <dc:format>image/svg+xml</dc:format>
    <dc:creator>
     <cc:Agent>
      <dc:title>Matplotlib v3.9.4, https://matplotlib.org/</dc:title>
     </cc:Agent>
    </dc:creator>
   </cc:Work>
  </rdf:RDF>
 </metadata>
 <defs>
  <style type="text/css">*{stroke-linejoin: round; stroke-linecap: butt}</style>
 </defs>
 <g id="figure_1">
  <g id="patch_1">
   <path d="M 0 440.39952 
L 728.397938 440.39952 
L 728.397938 0 
L 0 0 
z
" style="fill: #ffffff"/>
  </g>
  <g id="axes_1">
   <g id="patch_2">
    <path d="M 68.981743 391.361391 
L 719.986045 391.361391 
L 719.986045 7.2 
L 68.981743 7.2 
z
" style="fill: #ffffff"/>
   </g>
   <g id="matplotlib.axis_1">
    <g id="xtick_1">
     <g id="line2d_1">
      <path d="M 71.671843 391.361391 
L 71.671843 7.2 
" clip-path="url(#p282941c733)" style="fill: none; stroke-dasharray: 2.96,1.28; stroke-dashoffset: 0; stroke: #b0b0b0; stroke-opacity: 0.4; stroke-width: 0.8"/>
     </g>
     <g id="line2d_2">
      <defs>
       <path id="m6333173912" d="M 0 0 
L 0 6 
" style="stroke: #000000; stroke-width: 1.2"/>
      </defs>
      <g>
       <use xlink:href="#m6333173912" x="71.671843" y="391.361391" style="stroke: #000000; stroke-width: 1.2"/>
      </g>
     </g>
     <g id="text_1">
      <!-- $\mathdefault{−6}$ -->
      <g transform="translate(61.570851 411.930979) scale(0.16 -0.16)">
       <defs>
        <path id="CMSY10-0" d="M 4218 1472 
C 4326 1472 4442 1472 4442 1600 
C 4442 1728 4326 1728 4218 1728 
L 755 1728 
C 646 1728 531 1728 531 1600 
C 531 1472 646 1472 755 1472 
L 4218 1472 
z
" transform="scale(0.015625)"/>
        <path id="CMR17-36" d="M 678 2176 
C 678 3690 1395 4032 1811 4032 
C 1946 4032 2272 4009 2400 3776 
C 2298 3776 2106 3776 2106 3553 
C 2106 3381 2246 3323 2336 3323 
C 2394 3323 2566 3348 2566 3560 
C 2566 3954 2246 4179 1805 4179 
C 1043 4179 243 3390 243 1984 
C 243 253 966 -128 1478 -128 
C 2099 -128 2688 427 2688 1283 
C 2688 2081 2170 2662 1517 2662 
C 1126 2662 838 2407 678 1960 
L 678 2176 
z
M 1478 25 
C 691 25 691 1200 691 1436 
C 691 1896 909 2560 1504 2560 
C 1613 2560 1926 2560 2138 2120 
C 2253 1870 2253 1609 2253 1289 
C 2253 944 2253 690 2118 434 
C 1978 171 1773 25 1478 25 
z
" transform="scale(0.015625)"/>
       </defs>
       <use xlink:href="#CMSY10-0" transform="scale(0.996264)"/>
       <use xlink:href="#CMR17-36" transform="translate(77.487468 0) scale(0.996264)"/>
      </g>
     </g>
    </g>
    <g id="xtick_2">
     <g id="line2d_3">
      <path d="M 179.27586 391.361391 
L 179.27586 7.2 
" clip-path="url(#p282941c733)" style="fill: none; stroke-dasharray: 2.96,1.28; stroke-dashoffset: 0; stroke: #b0b0b0; stroke-opacity: 0.4; stroke-width: 0.8"/>
     </g>
     <g id="line2d_4">
      <g>
       <use xlink:href="#m6333173912" x="179.27586" y="391.361391" style="stroke: #000000; stroke-width: 1.2"/>
      </g>
     </g>
     <g id="text_2">
      <!-- $\mathdefault{−4}$ -->
      <g transform="translate(169.174868 411.930979) scale(0.16 -0.16)">
       <defs>
        <path id="CMR17-34" d="M 2150 4122 
C 2150 4256 2144 4256 2029 4256 
L 128 1254 
L 128 1088 
L 1779 1088 
L 1779 457 
C 1779 224 1766 160 1318 160 
L 1197 160 
L 1197 0 
C 1402 0 1747 0 1965 0 
C 2182 0 2528 0 2733 0 
L 2733 160 
L 2611 160 
C 2163 160 2150 224 2150 457 
L 2150 1088 
L 2803 1088 
L 2803 1254 
L 2150 1254 
L 2150 4122 
z
M 1798 3703 
L 1798 1254 
L 256 1254 
L 1798 3703 
z
" transform="scale(0.015625)"/>
       </defs>
       <use xlink:href="#CMSY10-0" transform="scale(0.996264)"/>
       <use xlink:href="#CMR17-34" transform="translate(77.487468 0) scale(0.996264)"/>
      </g>
     </g>
    </g>
    <g id="xtick_3">
     <g id="line2d_5">
      <path d="M 286.879877 391.361391 
L 286.879877 7.2 
" clip-path="url(#p282941c733)" style="fill: none; stroke-dasharray: 2.96,1.28; stroke-dashoffset: 0; stroke: #b0b0b0; stroke-opacity: 0.4; stroke-width: 0.8"/>
     </g>
     <g id="line2d_6">
      <g>
       <use xlink:href="#m6333173912" x="286.879877" y="391.361391" style="stroke: #000000; stroke-width: 1.2"/>
      </g>
     </g>
     <g id="text_3">
      <!-- $\mathdefault{−2}$ -->
      <g transform="translate(276.778885 411.930979) scale(0.16 -0.16)">
       <defs>
        <path id="CMR17-32" d="M 2669 989 
L 2554 989 
C 2490 536 2438 459 2413 420 
C 2381 369 1920 369 1830 369 
L 602 369 
C 832 619 1280 1072 1824 1597 
C 2214 1967 2669 2402 2669 3035 
C 2669 3790 2067 4224 1395 4224 
C 691 4224 262 3604 262 3030 
C 262 2780 448 2748 525 2748 
C 589 2748 781 2787 781 3010 
C 781 3207 614 3264 525 3264 
C 486 3264 448 3258 422 3245 
C 544 3790 915 4058 1306 4058 
C 1862 4058 2227 3617 2227 3035 
C 2227 2479 1901 2000 1536 1584 
L 262 146 
L 262 0 
L 2515 0 
L 2669 989 
z
" transform="scale(0.015625)"/>
       </defs>
       <use xlink:href="#CMSY10-0" transform="scale(0.996264)"/>
       <use xlink:href="#CMR17-32" transform="translate(77.487468 0) scale(0.996264)"/>
      </g>
     </g>
    </g>
    <g id="xtick_4">
     <g id="line2d_7">
      <path d="M 394.483894 391.361391 
L 394.483894 7.2 
" clip-path="url(#p282941c733)" style="fill: none; stroke-dasharray: 2.96,1.28; stroke-dashoffset: 0; stroke: #b0b0b0; stroke-opacity: 0.4; stroke-width: 0.8"/>
     </g>
     <g id="line2d_8">
      <g>
       <use xlink:href="#m6333173912" x="394.483894" y="391.361391" style="stroke: #000000; stroke-width: 1.2"/>
      </g>
     </g>
     <g id="text_4">
      <!-- $\mathdefault{0}$ -->
      <g transform="translate(390.5819 411.930979) scale(0.16 -0.16)">
       <defs>
        <path id="CMR17-30" d="M 2688 2025 
C 2688 2416 2682 3080 2413 3591 
C 2176 4039 1798 4198 1466 4198 
C 1158 4198 768 4058 525 3597 
C 269 3118 243 2524 243 2025 
C 243 1661 250 1106 448 619 
C 723 -39 1216 -128 1466 -128 
C 1760 -128 2208 -7 2470 600 
C 2662 1042 2688 1559 2688 2025 
z
M 1466 -26 
C 1056 -26 813 325 723 812 
C 653 1188 653 1738 653 2096 
C 653 2588 653 2997 736 3387 
C 858 3929 1216 4096 1466 4096 
C 1728 4096 2067 3923 2189 3400 
C 2272 3036 2278 2607 2278 2096 
C 2278 1680 2278 1169 2202 792 
C 2067 95 1690 -26 1466 -26 
z
" transform="scale(0.015625)"/>
       </defs>
       <use xlink:href="#CMR17-30" transform="scale(0.996264)"/>
      </g>
     </g>
    </g>
    <g id="xtick_5">
     <g id="line2d_9">
      <path d="M 502.087911 391.361391 
L 502.087911 7.2 
" clip-path="url(#p282941c733)" style="fill: none; stroke-dasharray: 2.96,1.28; stroke-dashoffset: 0; stroke: #b0b0b0; stroke-opacity: 0.4; stroke-width: 0.8"/>
     </g>
     <g id="line2d_10">
      <g>
       <use xlink:href="#m6333173912" x="502.087911" y="391.361391" style="stroke: #000000; stroke-width: 1.2"/>
      </g>
     </g>
     <g id="text_5">
      <!-- $\mathdefault{2}$ -->
      <g transform="translate(498.185917 411.930979) scale(0.16 -0.16)">
       <use xlink:href="#CMR17-32" transform="scale(0.996264)"/>
      </g>
     </g>
    </g>
    <g id="xtick_6">
     <g id="line2d_11">
      <path d="M 609.691928 391.361391 
L 609.691928 7.2 
" clip-path="url(#p282941c733)" style="fill: none; stroke-dasharray: 2.96,1.28; stroke-dashoffset: 0; stroke: #b0b0b0; stroke-opacity: 0.4; stroke-width: 0.8"/>
     </g>
     <g id="line2d_12">
      <g>
       <use xlink:href="#m6333173912" x="609.691928" y="391.361391" style="stroke: #000000; stroke-width: 1.2"/>
      </g>
     </g>
     <g id="text_6">
      <!-- $\mathdefault{4}$ -->
      <g transform="translate(605.789934 411.930979) scale(0.16 -0.16)">
       <use xlink:href="#CMR17-34" transform="scale(0.996264)"/>
      </g>
     </g>
    </g>
    <g id="xtick_7">
     <g id="line2d_13">
      <path d="M 717.295945 391.361391 
L 717.295945 7.2 
" clip-path="url(#p282941c733)" style="fill: none; stroke-dasharray: 2.96,1.28; stroke-dashoffset: 0; stroke: #b0b0b0; stroke-opacity: 0.4; stroke-width: 0.8"/>
     </g>
     <g id="line2d_14">
      <g>
       <use xlink:href="#m6333173912" x="717.295945" y="391.361391" style="stroke: #000000; stroke-width: 1.2"/>
      </g>
     </g>
     <g id="text_7">
      <!-- $\mathdefault{6}$ -->
      <g transform="translate(713.393951 411.930979) scale(0.16 -0.16)">
       <use xlink:href="#CMR17-36" transform="scale(0.996264)"/>
      </g>
     </g>
    </g>
    <g id="text_8">
     <!-- Beugungsordnung $n$ -->
     <g transform="translate(326.376116 430.100044) scale(0.16 -0.16)">
      <defs>
       <path id="CMR17-42" d="M 333 4352 
L 333 4186 
C 774 4186 845 4186 845 3900 
L 845 452 
C 845 166 774 166 333 166 
L 333 0 
L 2534 0 
C 3354 0 3885 583 3885 1164 
C 3885 1741 3360 2233 2675 2233 
C 3290 2356 3718 2771 3718 3264 
C 3718 3802 3194 4352 2368 4352 
L 333 4352 
z
M 1248 2304 
L 1248 3937 
C 1248 4155 1261 4186 1517 4186 
L 2336 4186 
C 2970 4186 3251 3674 3251 3277 
C 3251 2791 2861 2304 2170 2304 
L 1248 2304 
z
M 1517 166 
C 1261 166 1248 197 1248 413 
L 1248 2202 
L 2432 2202 
C 3091 2202 3411 1625 3411 1162 
C 3411 699 3046 166 2349 166 
L 1517 166 
z
" transform="scale(0.015625)"/>
       <path id="CMR17-65" d="M 2438 1472 
C 2464 1498 2464 1511 2464 1576 
C 2464 2238 2118 2816 1389 2816 
C 710 2816 173 2169 173 1383 
C 173 551 781 -64 1459 -64 
C 2176 -64 2458 607 2458 740 
C 2458 784 2419 784 2406 784 
C 2362 784 2355 771 2330 696 
C 2189 265 1837 51 1504 51 
C 1229 51 954 203 781 480 
C 582 803 582 1176 582 1472 
L 2438 1472 
z
M 589 1568 
C 634 2505 1126 2714 1382 2714 
C 1818 2714 2112 2297 2118 1568 
L 589 1568 
z
" transform="scale(0.015625)"/>
       <path id="CMR17-75" d="M 1882 2693 
L 1882 2528 
C 2259 2528 2317 2489 2317 2186 
L 2317 1032 
C 2317 500 2029 38 1555 38 
C 1030 38 986 348 986 678 
L 986 2763 
L 211 2693 
L 211 2528 
C 467 2528 640 2528 646 2274 
L 646 1058 
C 646 633 646 361 813 183 
C 896 101 1056 -64 1517 -64 
C 2061 -64 2272 377 2323 506 
L 2330 506 
L 2330 -63 
L 3091 -63 
L 3091 128 
C 2714 128 2656 166 2656 473 
L 2656 2763 
L 1882 2693 
z
" transform="scale(0.015625)"/>
       <path id="CMR17-67" d="M 710 1164 
C 832 1068 1043 960 1299 960 
C 1805 960 2240 1357 2240 1888 
C 2240 2054 2189 2310 1997 2509 
C 2176 2692 2438 2752 2586 2752 
C 2611 2752 2650 2752 2682 2734 
C 2656 2728 2598 2703 2598 2605 
C 2598 2527 2656 2471 2739 2471 
C 2835 2471 2886 2533 2886 2614 
C 2886 2731 2790 2854 2586 2854 
C 2330 2854 2106 2738 1926 2580 
C 1734 2753 1504 2816 1299 2816 
C 794 2816 358 2419 358 1888 
C 358 1522 570 1292 634 1228 
C 442 1004 442 743 442 711 
C 442 545 506 302 723 168 
C 390 85 128 -169 128 -486 
C 128 -943 736 -1280 1466 -1280 
C 2170 -1280 2803 -956 2803 -479 
C 2803 384 1856 384 1363 384 
C 1216 384 954 384 922 391 
C 723 423 589 602 589 826 
C 589 883 589 1024 710 1164 
z
M 1299 1068 
C 736 1068 736 1760 736 1889 
C 736 2016 736 2708 1299 2708 
C 1862 2708 1862 2016 1862 1889 
C 1862 1760 1862 1068 1299 1068 
z
M 1466 -1171 
C 826 -1171 384 -835 384 -486 
C 384 -289 493 -105 634 -4 
C 794 104 858 104 1293 104 
C 1818 104 2547 104 2547 -486 
C 2547 -835 2106 -1171 1466 -1171 
z
" transform="scale(0.015625)"/>
       <path id="CMR17-6e" d="M 2656 1933 
C 2656 2259 2592 2790 1837 2790 
C 1331 2790 1069 2400 973 2144 
L 966 2144 
L 966 2790 
L 211 2720 
L 211 2554 
C 589 2554 646 2515 646 2208 
L 646 428 
C 646 184 621 153 211 153 
L 211 -13 
C 365 0 646 0 813 0 
C 979 0 1267 0 1421 -13 
L 1421 153 
C 1011 153 986 178 986 428 
L 986 1658 
C 986 2247 1344 2688 1792 2688 
C 2266 2688 2317 2266 2317 1958 
L 2317 428 
C 2317 184 2291 153 1882 153 
L 1882 -13 
C 2035 0 2317 0 2483 0 
C 2650 0 2938 0 3091 -13 
L 3091 153 
C 2682 153 2656 178 2656 428 
L 2656 1933 
z
" transform="scale(0.015625)"/>
       <path id="CMR17-73" d="M 1978 2697 
C 1978 2813 1971 2819 1933 2819 
C 1907 2819 1901 2813 1824 2717 
C 1805 2691 1747 2626 1728 2601 
C 1523 2819 1235 2819 1126 2819 
C 416 2819 160 2447 160 2076 
C 160 1498 813 1365 998 1325 
C 1402 1243 1542 1217 1677 1101 
C 1760 1025 1901 884 1901 654 
C 1901 384 1747 38 1158 38 
C 602 38 403 460 288 1021 
C 269 1110 269 1117 218 1117 
C 166 1117 160 1110 160 983 
L 160 63 
C 160 -51 166 -58 205 -58 
C 237 -58 243 -51 275 0 
C 314 57 410 211 448 276 
C 576 103 800 -64 1158 -64 
C 1792 -64 2131 283 2131 784 
C 2131 1112 1958 1285 1875 1362 
C 1683 1561 1459 1606 1190 1657 
C 838 1735 390 1825 390 2217 
C 390 2383 480 2737 1126 2737 
C 1811 2737 1850 2094 1862 1888 
C 1869 1856 1901 1849 1920 1849 
C 1978 1849 1978 1869 1978 1978 
L 1978 2697 
z
" transform="scale(0.015625)"/>
       <path id="CMR17-6f" d="M 2758 1356 
C 2758 2176 2163 2816 1466 2816 
C 768 2816 173 2176 173 1356 
C 173 551 768 -64 1466 -64 
C 2163 -64 2758 551 2758 1356 
z
M 1466 51 
C 1165 51 909 230 762 480 
C 602 767 582 1126 582 1408 
C 582 1677 595 2010 762 2298 
C 890 2509 1139 2714 1466 2714 
C 1754 2714 1997 2554 2150 2330 
C 2349 2029 2349 1607 2349 1408 
C 2349 1158 2336 775 2163 467 
C 1984 173 1709 51 1466 51 
z
" transform="scale(0.015625)"/>
       <path id="CMR17-72" d="M 960 1497 
C 960 2112 1222 2688 1702 2688 
C 1747 2688 1792 2682 1837 2662 
C 1837 2662 1696 2617 1696 2452 
C 1696 2298 1818 2234 1914 2234 
C 1990 2234 2131 2279 2131 2458 
C 2131 2663 1926 2790 1709 2790 
C 1222 2790 1011 2317 947 2093 
L 941 2093 
L 941 2790 
L 198 2720 
L 198 2554 
C 576 2554 634 2515 634 2208 
L 634 428 
C 634 184 608 153 198 153 
L 198 -13 
C 352 0 646 0 813 0 
C 998 0 1325 0 1498 -13 
L 1498 153 
C 1037 153 960 153 960 440 
L 960 1497 
z
" transform="scale(0.015625)"/>
       <path id="CMR17-64" d="M 1869 4326 
L 1869 4160 
C 2246 4160 2304 4122 2304 3820 
L 2304 2345 
C 2278 2377 2016 2790 1498 2790 
C 845 2790 211 2208 211 1364 
C 211 525 806 -64 1434 -64 
C 1978 -64 2259 337 2291 380 
L 2291 -63 
L 3066 -63 
L 3066 128 
C 2688 128 2630 166 2630 473 
L 2630 4396 
L 1869 4326 
z
M 2291 755 
C 2291 563 2176 390 2029 262 
C 1811 70 1594 38 1472 38 
C 1286 38 621 134 621 1356 
C 621 2612 1363 2688 1530 2688 
C 1824 2688 2061 2522 2208 2291 
C 2291 2157 2291 2138 2291 2023 
L 2291 755 
z
" transform="scale(0.015625)"/>
       <path id="CMMI12-6e" d="M 1318 1871 
C 1331 1910 1491 2229 1728 2433 
C 1894 2586 2112 2689 2362 2689 
C 2618 2689 2707 2497 2707 2242 
C 2707 1878 2445 1150 2317 805 
C 2259 651 2227 568 2227 453 
C 2227 166 2426 -64 2733 -64 
C 3328 -64 3552 875 3552 913 
C 3552 945 3526 971 3488 971 
C 3430 971 3424 952 3392 843 
C 3245 319 3002 64 2752 64 
C 2688 64 2586 64 2586 269 
C 2586 429 2656 621 2694 710 
C 2822 1063 3091 1780 3091 2145 
C 3091 2528 2867 2816 2381 2816 
C 1811 2816 1510 2415 1395 2255 
C 1376 2618 1114 2816 832 2816 
C 627 2816 486 2695 378 2478 
C 262 2248 173 1865 173 1839 
C 173 1814 198 1782 243 1782 
C 294 1782 301 1788 339 1935 
C 442 2325 557 2689 813 2689 
C 960 2689 1011 2586 1011 2395 
C 1011 2254 947 2005 902 1807 
L 723 1118 
C 698 996 627 709 595 594 
C 550 428 480 128 480 96 
C 480 6 550 -64 646 -64 
C 723 -64 813 -26 864 70 
C 877 102 934 326 966 453 
L 1107 1028 
L 1318 1871 
z
" transform="scale(0.015625)"/>
      </defs>
      <use xlink:href="#CMR17-42" transform="scale(0.996264)"/>
      <use xlink:href="#CMR17-65" transform="translate(65.188754 0) scale(0.996264)"/>
      <use xlink:href="#CMR17-75" transform="translate(105.674415 0) scale(0.996264)"/>
      <use xlink:href="#CMR17-67" transform="translate(156.569785 0) scale(0.996264)"/>
      <use xlink:href="#CMR17-75" transform="translate(202.260262 0) scale(0.996264)"/>
      <use xlink:href="#CMR17-6e" transform="translate(253.155632 0) scale(0.996264)"/>
      <use xlink:href="#CMR17-67" transform="translate(304.051001 0) scale(0.996264)"/>
      <use xlink:href="#CMR17-73" transform="translate(349.741478 0) scale(0.996264)"/>
      <use xlink:href="#CMR17-6f" transform="translate(385.542816 0) scale(0.996264)"/>
      <use xlink:href="#CMR17-72" transform="translate(431.233293 0) scale(0.996264)"/>
      <use xlink:href="#CMR17-64" transform="translate(466.514061 0) scale(0.996264)"/>
      <use xlink:href="#CMR17-6e" transform="translate(517.409431 0) scale(0.996264)"/>
      <use xlink:href="#CMR17-75" transform="translate(565.702347 0) scale(0.996264)"/>
      <use xlink:href="#CMR17-6e" transform="translate(616.597716 0) scale(0.996264)"/>
      <use xlink:href="#CMR17-67" transform="translate(667.493086 0) scale(0.996264)"/>
      <use xlink:href="#CMMI12-6e" transform="translate(743.25953 0) scale(0.996264)"/>
     </g>
    </g>
   </g>
   <g id="matplotlib.axis_2">
    <g id="ytick_1">
     <g id="line2d_15">
      <path d="M 68.981743 373.674694 
L 719.986045 373.674694 
" clip-path="url(#p282941c733)" style="fill: none; stroke-dasharray: 2.96,1.28; stroke-dashoffset: 0; stroke: #b0b0b0; stroke-opacity: 0.4; stroke-width: 0.8"/>
     </g>
     <g id="line2d_16">
      <defs>
       <path id="m84e1d5a1c6" d="M 0 0 
L -6 0 
" style="stroke: #000000; stroke-width: 1.2"/>
      </defs>
      <g>
       <use xlink:href="#m84e1d5a1c6" x="68.981743" y="373.674694" style="stroke: #000000; stroke-width: 1.2"/>
      </g>
     </g>
     <g id="text_9">
      <!-- $\mathdefault{−0.3}$ -->
      <g transform="translate(27.140224 379.209488) scale(0.16 -0.16)">
       <defs>
        <path id="CMMI12-3a" d="M 1178 307 
C 1178 492 1024 619 870 619 
C 685 619 557 466 557 313 
C 557 128 710 0 864 0 
C 1050 0 1178 153 1178 307 
z
" transform="scale(0.015625)"/>
        <path id="CMR17-33" d="M 1414 2157 
C 1984 2157 2234 1662 2234 1090 
C 2234 320 1824 25 1453 25 
C 1114 25 563 194 390 693 
C 422 680 454 680 486 680 
C 640 680 755 782 755 948 
C 755 1133 614 1216 486 1216 
C 378 1216 211 1165 211 926 
C 211 335 787 -128 1466 -128 
C 2176 -128 2720 430 2720 1085 
C 2720 1707 2208 2157 1600 2227 
C 2086 2328 2554 2756 2554 3329 
C 2554 3820 2048 4179 1472 4179 
C 890 4179 378 3829 378 3329 
C 378 3110 544 3072 627 3072 
C 762 3072 877 3155 877 3321 
C 877 3486 762 3569 627 3569 
C 602 3569 570 3569 544 3557 
C 730 3959 1235 4032 1459 4032 
C 1683 4032 2106 3925 2106 3320 
C 2106 3143 2080 2828 1862 2550 
C 1670 2304 1453 2304 1242 2284 
C 1210 2284 1062 2269 1037 2269 
C 992 2263 966 2257 966 2208 
C 966 2163 973 2157 1101 2157 
L 1414 2157 
z
" transform="scale(0.015625)"/>
       </defs>
       <use xlink:href="#CMSY10-0" transform="scale(0.996264)"/>
       <use xlink:href="#CMR17-30" transform="translate(77.487468 0) scale(0.996264)"/>
       <use xlink:href="#CMMI12-3a" transform="translate(123.177945 0) scale(0.996264)"/>
       <use xlink:href="#CMR17-33" transform="translate(150.275122 0) scale(0.996264)"/>
      </g>
     </g>
    </g>
    <g id="ytick_2">
     <g id="line2d_17">
      <path d="M 68.981743 315.557511 
L 719.986045 315.557511 
" clip-path="url(#p282941c733)" style="fill: none; stroke-dasharray: 2.96,1.28; stroke-dashoffset: 0; stroke: #b0b0b0; stroke-opacity: 0.4; stroke-width: 0.8"/>
     </g>
     <g id="line2d_18">
      <g>
       <use xlink:href="#m84e1d5a1c6" x="68.981743" y="315.557511" style="stroke: #000000; stroke-width: 1.2"/>
      </g>
     </g>
     <g id="text_10">
      <!-- $\mathdefault{−0.2}$ -->
      <g transform="translate(27.140224 321.092305) scale(0.16 -0.16)">
       <use xlink:href="#CMSY10-0" transform="scale(0.996264)"/>
       <use xlink:href="#CMR17-30" transform="translate(77.487468 0) scale(0.996264)"/>
       <use xlink:href="#CMMI12-3a" transform="translate(123.177945 0) scale(0.996264)"/>
       <use xlink:href="#CMR17-32" transform="translate(150.275122 0) scale(0.996264)"/>
      </g>
     </g>
    </g>
    <g id="ytick_3">
     <g id="line2d_19">
      <path d="M 68.981743 257.440327 
L 719.986045 257.440327 
" clip-path="url(#p282941c733)" style="fill: none; stroke-dasharray: 2.96,1.28; stroke-dashoffset: 0; stroke: #b0b0b0; stroke-opacity: 0.4; stroke-width: 0.8"/>
     </g>
     <g id="line2d_20">
      <g>
       <use xlink:href="#m84e1d5a1c6" x="68.981743" y="257.440327" style="stroke: #000000; stroke-width: 1.2"/>
      </g>
     </g>
     <g id="text_11">
      <!-- $\mathdefault{−0.1}$ -->
      <g transform="translate(27.140224 262.975121) scale(0.16 -0.16)">
       <defs>
        <path id="CMR17-31" d="M 1702 4058 
C 1702 4192 1696 4192 1606 4192 
C 1357 3916 979 3827 621 3827 
C 602 3827 570 3827 563 3808 
C 557 3795 557 3782 557 3648 
C 755 3648 1088 3686 1344 3839 
L 1344 461 
C 1344 236 1331 160 781 160 
L 589 160 
L 589 0 
C 896 0 1216 0 1523 0 
C 1830 0 2150 0 2458 0 
L 2458 160 
L 2266 160 
C 1715 160 1702 230 1702 458 
L 1702 4058 
z
" transform="scale(0.015625)"/>
       </defs>
       <use xlink:href="#CMSY10-0" transform="scale(0.996264)"/>
       <use xlink:href="#CMR17-30" transform="translate(77.487468 0) scale(0.996264)"/>
       <use xlink:href="#CMMI12-3a" transform="translate(123.177945 0) scale(0.996264)"/>
       <use xlink:href="#CMR17-31" transform="translate(150.275122 0) scale(0.996264)"/>
      </g>
     </g>
    </g>
    <g id="ytick_4">
     <g id="line2d_21">
      <path d="M 68.981743 199.323144 
L 719.986045 199.323144 
" clip-path="url(#p282941c733)" style="fill: none; stroke-dasharray: 2.96,1.28; stroke-dashoffset: 0; stroke: #b0b0b0; stroke-opacity: 0.4; stroke-width: 0.8"/>
     </g>
     <g id="line2d_22">
      <g>
       <use xlink:href="#m84e1d5a1c6" x="68.981743" y="199.323144" style="stroke: #000000; stroke-width: 1.2"/>
      </g>
     </g>
     <g id="text_12">
      <!-- $\mathdefault{0.0}$ -->
      <g transform="translate(39.53822 204.857938) scale(0.16 -0.16)">
       <use xlink:href="#CMR17-30" transform="scale(0.996264)"/>
       <use xlink:href="#CMMI12-3a" transform="translate(45.690477 0) scale(0.996264)"/>
       <use xlink:href="#CMR17-30" transform="translate(72.787654 0) scale(0.996264)"/>
      </g>
     </g>
    </g>
    <g id="ytick_5">
     <g id="line2d_23">
      <path d="M 68.981743 141.20596 
L 719.986045 141.20596 
" clip-path="url(#p282941c733)" style="fill: none; stroke-dasharray: 2.96,1.28; stroke-dashoffset: 0; stroke: #b0b0b0; stroke-opacity: 0.4; stroke-width: 0.8"/>
     </g>
     <g id="line2d_24">
      <g>
       <use xlink:href="#m84e1d5a1c6" x="68.981743" y="141.20596" style="stroke: #000000; stroke-width: 1.2"/>
      </g>
     </g>
     <g id="text_13">
      <!-- $\mathdefault{0.1}$ -->
      <g transform="translate(39.53822 146.740754) scale(0.16 -0.16)">
       <use xlink:href="#CMR17-30" transform="scale(0.996264)"/>
       <use xlink:href="#CMMI12-3a" transform="translate(45.690477 0) scale(0.996264)"/>
       <use xlink:href="#CMR17-31" transform="translate(72.787654 0) scale(0.996264)"/>
      </g>
     </g>
    </g>
    <g id="ytick_6">
     <g id="line2d_25">
      <path d="M 68.981743 83.088777 
L 719.986045 83.088777 
" clip-path="url(#p282941c733)" style="fill: none; stroke-dasharray: 2.96,1.28; stroke-dashoffset: 0; stroke: #b0b0b0; stroke-opacity: 0.4; stroke-width: 0.8"/>
     </g>
     <g id="line2d_26">
      <g>
       <use xlink:href="#m84e1d5a1c6" x="68.981743" y="83.088777" style="stroke: #000000; stroke-width: 1.2"/>
      </g>
     </g>
     <g id="text_14">
      <!-- $\mathdefault{0.2}$ -->
      <g transform="translate(39.53822 88.623571) scale(0.16 -0.16)">
       <use xlink:href="#CMR17-30" transform="scale(0.996264)"/>
       <use xlink:href="#CMMI12-3a" transform="translate(45.690477 0) scale(0.996264)"/>
       <use xlink:href="#CMR17-32" transform="translate(72.787654 0) scale(0.996264)"/>
      </g>
     </g>
    </g>
    <g id="ytick_7">
     <g id="line2d_27">
      <path d="M 68.981743 24.971593 
L 719.986045 24.971593 
" clip-path="url(#p282941c733)" style="fill: none; stroke-dasharray: 2.96,1.28; stroke-dashoffset: 0; stroke: #b0b0b0; stroke-opacity: 0.4; stroke-width: 0.8"/>
     </g>
     <g id="line2d_28">
      <g>
       <use xlink:href="#m84e1d5a1c6" x="68.981743" y="24.971593" style="stroke: #000000; stroke-width: 1.2"/>
      </g>
     </g>
     <g id="text_15">
      <!-- $\mathdefault{0.3}$ -->
      <g transform="translate(39.53822 30.506387) scale(0.16 -0.16)">
       <use xlink:href="#CMR17-30" transform="scale(0.996264)"/>
       <use xlink:href="#CMMI12-3a" transform="translate(45.690477 0) scale(0.996264)"/>
       <use xlink:href="#CMR17-33" transform="translate(72.787654 0) scale(0.996264)"/>
      </g>
     </g>
    </g>
    <g id="text_16">
     <!-- $\sin(\arctan(s/l))$ -->
     <g transform="translate(19.155168 252.757404) rotate(-90) scale(0.16 -0.16)">
      <defs>
       <path id="CMR17-69" d="M 992 3909 
C 992 4049 877 4170 730 4170 
C 589 4170 467 4056 467 3909 
C 467 3769 582 3648 730 3648 
C 870 3648 992 3763 992 3909 
z
M 243 2706 
L 243 2541 
C 602 2541 653 2502 653 2197 
L 653 427 
C 653 184 627 153 218 153 
L 218 -13 
C 371 0 646 0 806 0 
C 960 0 1222 0 1370 -13 
L 1370 153 
C 992 153 979 191 979 420 
L 979 2776 
L 243 2706 
z
" transform="scale(0.015625)"/>
       <path id="CMR17-28" d="M 1958 -1561 
C 1958 -1555 1958 -1542 1939 -1523 
C 1645 -1224 858 -407 858 1581 
C 858 3569 1632 4379 1946 4697 
C 1946 4704 1958 4717 1958 4736 
C 1958 4755 1939 4768 1914 4768 
C 1843 4768 1299 4296 986 3594 
C 666 2887 576 2199 576 1588 
C 576 1128 621 351 1005 -471 
C 1312 -1135 1837 -1600 1914 -1600 
C 1946 -1600 1958 -1587 1958 -1561 
z
" transform="scale(0.015625)"/>
       <path id="CMR17-61" d="M 2304 1653 
C 2304 2072 2304 2294 2035 2543 
C 1798 2752 1523 2816 1306 2816 
C 800 2816 435 2407 435 1971 
C 435 1728 627 1728 666 1728 
C 749 1728 896 1778 896 1954 
C 896 2112 774 2181 666 2181 
C 640 2181 608 2174 589 2168 
C 723 2592 1069 2714 1293 2714 
C 1613 2714 1965 2429 1965 1885 
L 1965 1600 
C 1587 1600 1133 1549 774 1357 
C 371 1133 256 813 256 570 
C 256 77 832 -64 1171 -64 
C 1523 -64 1850 139 1990 511 
C 2003 233 2182 -18 2464 -18 
C 2598 -18 2938 70 2938 567 
L 2938 920 
L 2822 920 
L 2822 562 
C 2822 178 2650 128 2566 128 
C 2304 128 2304 458 2304 738 
L 2304 1653 
z
M 1965 870 
C 1965 317 1568 38 1216 38 
C 896 38 646 275 646 570 
C 646 761 730 1100 1101 1305 
C 1408 1478 1760 1504 1965 1504 
L 1965 870 
z
" transform="scale(0.015625)"/>
       <path id="CMR17-63" d="M 2234 2240 
C 2112 2240 1933 2240 1933 2017 
C 1933 1838 2080 1787 2163 1787 
C 2208 1787 2394 1807 2394 2024 
C 2394 2467 1958 2803 1466 2803 
C 787 2803 211 2178 211 1363 
C 211 516 813 -64 1466 -64 
C 2259 -64 2458 677 2458 748 
C 2458 774 2451 793 2406 793 
C 2362 793 2355 787 2330 703 
C 2163 180 1798 51 1523 51 
C 1114 51 621 427 621 1369 
C 621 2338 1094 2688 1472 2688 
C 1722 2688 2093 2573 2234 2240 
z
" transform="scale(0.015625)"/>
       <path id="CMR17-74" d="M 966 2560 
L 1862 2560 
L 1862 2725 
L 966 2725 
L 966 3904 
L 851 3904 
C 838 3245 614 2668 70 2668 
L 70 2560 
L 627 2560 
L 627 771 
C 627 650 627 -64 1370 -64 
C 1747 -64 1965 306 1965 777 
L 1965 1140 
L 1850 1140 
L 1850 783 
C 1850 344 1677 51 1408 51 
C 1222 51 966 178 966 758 
L 966 2560 
z
" transform="scale(0.015625)"/>
       <path id="CMMI12-73" d="M 1459 1280 
C 1568 1261 1741 1223 1779 1216 
C 1862 1192 2150 1090 2150 783 
C 2150 586 1971 70 1229 70 
C 1094 70 614 70 486 436 
C 742 404 870 603 870 745 
C 870 880 781 950 653 950 
C 512 950 326 841 326 552 
C 326 173 710 -64 1222 -64 
C 2195 -64 2483 651 2483 984 
C 2483 1079 2483 1258 2278 1462 
C 2118 1616 1965 1648 1619 1718 
C 1446 1756 1171 1814 1171 2101 
C 1171 2229 1286 2689 1894 2689 
C 2163 2689 2426 2589 2490 2368 
C 2208 2368 2195 2125 2195 2119 
C 2195 1984 2317 1946 2374 1946 
C 2464 1946 2643 2015 2643 2281 
C 2643 2545 2400 2816 1901 2816 
C 1062 2816 838 2160 838 1899 
C 838 1414 1312 1312 1459 1280 
z
" transform="scale(0.015625)"/>
       <path id="CMMI12-3d" d="M 2746 4562 
C 2746 4569 2784 4666 2784 4678 
C 2784 4755 2720 4800 2669 4800 
C 2637 4800 2579 4800 2528 4659 
L 384 -1363 
C 384 -1370 346 -1465 346 -1478 
C 346 -1555 410 -1600 461 -1600 
C 499 -1600 557 -1593 602 -1459 
L 2746 4562 
z
" transform="scale(0.015625)"/>
       <path id="CMMI12-6c" d="M 1626 4257 
C 1632 4282 1645 4320 1645 4352 
C 1645 4416 1581 4416 1568 4416 
C 1562 4416 1331 4393 1216 4377 
C 1107 4377 1011 4358 896 4358 
C 742 4345 698 4339 698 4224 
C 698 4160 762 4160 826 4160 
C 1152 4160 1152 4102 1152 4039 
C 1152 4014 1152 4001 1120 3887 
L 326 731 
C 307 661 294 610 294 509 
C 294 191 531 -64 858 -64 
C 1069 -64 1210 76 1312 274 
C 1421 483 1510 884 1510 909 
C 1510 941 1485 967 1446 967 
C 1389 967 1382 935 1357 840 
C 1242 401 1126 64 870 64 
C 678 64 678 267 678 357 
C 678 382 678 515 723 694 
L 1626 4257 
z
" transform="scale(0.015625)"/>
       <path id="CMR17-29" d="M 1683 1581 
C 1683 2040 1638 2817 1254 3639 
C 947 4303 422 4768 346 4768 
C 326 4768 301 4761 301 4729 
C 301 4717 307 4710 314 4697 
C 621 4378 1402 3568 1402 1584 
C 1402 -407 627 -1217 314 -1537 
C 307 -1549 301 -1556 301 -1568 
C 301 -1600 326 -1600 346 -1600 
C 416 -1600 960 -1128 1274 -426 
C 1594 281 1683 969 1683 1581 
z
" transform="scale(0.015625)"/>
      </defs>
      <use xlink:href="#CMR17-73" transform="scale(0.996264)"/>
      <use xlink:href="#CMR17-69" transform="translate(35.801338 0) scale(0.996264)"/>
      <use xlink:href="#CMR17-6e" transform="translate(60.672396 0) scale(0.996264)"/>
      <use xlink:href="#CMR17-28" transform="translate(111.567766 0) scale(0.996264)"/>
      <use xlink:href="#CMR17-61" transform="translate(146.848534 0) scale(0.996264)"/>
      <use xlink:href="#CMR17-72" transform="translate(192.539011 0) scale(0.996264)"/>
      <use xlink:href="#CMR17-63" transform="translate(227.819779 0) scale(0.996264)"/>
      <use xlink:href="#CMR17-74" transform="translate(268.305439 0) scale(0.996264)"/>
      <use xlink:href="#CMR17-61" transform="translate(303.586207 0) scale(0.996264)"/>
      <use xlink:href="#CMR17-6e" transform="translate(349.276684 0) scale(0.996264)"/>
      <use xlink:href="#CMR17-28" transform="translate(400.172054 0) scale(0.996264)"/>
      <use xlink:href="#CMMI12-73" transform="translate(435.452822 0) scale(0.996264)"/>
      <use xlink:href="#CMMI12-3d" transform="translate(481.402869 0) scale(0.996264)"/>
      <use xlink:href="#CMMI12-6c" transform="translate(530.177788 0) scale(0.996264)"/>
      <use xlink:href="#CMR17-29" transform="translate(561.426192 0) scale(0.996264)"/>
      <use xlink:href="#CMR17-29" transform="translate(596.706959 0) scale(0.996264)"/>
     </g>
    </g>
   </g>
   <g id="LineCollection_1">
    <path d="M 663.493936 46.204893 
L 663.493936 42.707034 
" clip-path="url(#p282941c733)" style="fill: none; stroke: #1f77b4; stroke-width: 1.5"/>
    <path d="M 609.691928 77.465556 
L 609.691928 73.98712 
" clip-path="url(#p282941c733)" style="fill: none; stroke: #1f77b4; stroke-width: 1.5"/>
    <path d="M 555.889919 109.889697 
L 555.889919 106.434277 
" clip-path="url(#p282941c733)" style="fill: none; stroke: #1f77b4; stroke-width: 1.5"/>
    <path d="M 502.087911 139.847629 
L 502.087911 136.411111 
" clip-path="url(#p282941c733)" style="fill: none; stroke: #1f77b4; stroke-width: 1.5"/>
    <path d="M 448.285902 173.715309 
L 448.285902 170.292918 
" clip-path="url(#p282941c733)" style="fill: none; stroke: #1f77b4; stroke-width: 1.5"/>
    <path d="M 340.681885 231.75972 
L 340.681885 228.336354 
" clip-path="url(#p282941c733)" style="fill: none; stroke: #1f77b4; stroke-width: 1.5"/>
    <path d="M 286.879877 262.235177 
L 286.879877 258.798658 
" clip-path="url(#p282941c733)" style="fill: none; stroke: #1f77b4; stroke-width: 1.5"/>
    <path d="M 233.077868 292.21201 
L 233.077868 288.756591 
" clip-path="url(#p282941c733)" style="fill: none; stroke: #1f77b4; stroke-width: 1.5"/>
    <path d="M 179.27586 324.659167 
L 179.27586 321.180731 
" clip-path="url(#p282941c733)" style="fill: none; stroke: #1f77b4; stroke-width: 1.5"/>
    <path d="M 125.473851 355.939254 
L 125.473851 352.441395 
" clip-path="url(#p282941c733)" style="fill: none; stroke: #1f77b4; stroke-width: 1.5"/>
   </g>
   <g id="line2d_29">
    <defs>
     <path id="m0248b808c8" d="M 5 0 
L -5 -0 
" style="stroke: #1f77b4"/>
    </defs>
    <g clip-path="url(#p282941c733)">
     <use xlink:href="#m0248b808c8" x="663.493936" y="46.204893" style="fill: #1f77b4; stroke: #1f77b4"/>
     <use xlink:href="#m0248b808c8" x="609.691928" y="77.465556" style="fill: #1f77b4; stroke: #1f77b4"/>
     <use xlink:href="#m0248b808c8" x="555.889919" y="109.889697" style="fill: #1f77b4; stroke: #1f77b4"/>
     <use xlink:href="#m0248b808c8" x="502.087911" y="139.847629" style="fill: #1f77b4; stroke: #1f77b4"/>
     <use xlink:href="#m0248b808c8" x="448.285902" y="173.715309" style="fill: #1f77b4; stroke: #1f77b4"/>
     <use xlink:href="#m0248b808c8" x="340.681885" y="231.75972" style="fill: #1f77b4; stroke: #1f77b4"/>
     <use xlink:href="#m0248b808c8" x="286.879877" y="262.235177" style="fill: #1f77b4; stroke: #1f77b4"/>
     <use xlink:href="#m0248b808c8" x="233.077868" y="292.21201" style="fill: #1f77b4; stroke: #1f77b4"/>
     <use xlink:href="#m0248b808c8" x="179.27586" y="324.659167" style="fill: #1f77b4; stroke: #1f77b4"/>
     <use xlink:href="#m0248b808c8" x="125.473851" y="355.939254" style="fill: #1f77b4; stroke: #1f77b4"/>
    </g>
   </g>
   <g id="line2d_30">
    <g clip-path="url(#p282941c733)">
     <use xlink:href="#m0248b808c8" x="663.493936" y="42.707034" style="fill: #1f77b4; stroke: #1f77b4"/>
     <use xlink:href="#m0248b808c8" x="609.691928" y="73.98712" style="fill: #1f77b4; stroke: #1f77b4"/>
     <use xlink:href="#m0248b808c8" x="555.889919" y="106.434277" style="fill: #1f77b4; stroke: #1f77b4"/>
     <use xlink:href="#m0248b808c8" x="502.087911" y="136.411111" style="fill: #1f77b4; stroke: #1f77b4"/>
     <use xlink:href="#m0248b808c8" x="448.285902" y="170.292918" style="fill: #1f77b4; stroke: #1f77b4"/>
     <use xlink:href="#m0248b808c8" x="340.681885" y="228.336354" style="fill: #1f77b4; stroke: #1f77b4"/>
     <use xlink:href="#m0248b808c8" x="286.879877" y="258.798658" style="fill: #1f77b4; stroke: #1f77b4"/>
     <use xlink:href="#m0248b808c8" x="233.077868" y="288.756591" style="fill: #1f77b4; stroke: #1f77b4"/>
     <use xlink:href="#m0248b808c8" x="179.27586" y="321.180731" style="fill: #1f77b4; stroke: #1f77b4"/>
     <use xlink:href="#m0248b808c8" x="125.473851" y="352.441395" style="fill: #1f77b4; stroke: #1f77b4"/>
    </g>
   </g>
   <g id="LineCollection_2">
    <path d="M 663.493936 35.101137 
L 663.493936 32.919972 
" clip-path="url(#p282941c733)" style="fill: none; stroke: #ff7f0e; stroke-width: 1.5"/>
    <path d="M 609.691928 67.759024 
L 609.691928 65.589127 
" clip-path="url(#p282941c733)" style="fill: none; stroke: #ff7f0e; stroke-width: 1.5"/>
    <path d="M 555.889919 101.796033 
L 555.889919 99.641053 
" clip-path="url(#p282941c733)" style="fill: none; stroke: #ff7f0e; stroke-width: 1.5"/>
    <path d="M 502.087911 134.82142 
L 502.087911 132.679928 
" clip-path="url(#p282941c733)" style="fill: none; stroke: #ff7f0e; stroke-width: 1.5"/>
    <path d="M 448.285902 168.504712 
L 448.285902 166.372724 
" clip-path="url(#p282941c733)" style="fill: none; stroke: #ff7f0e; stroke-width: 1.5"/>
    <path d="M 340.681885 232.273563 
L 340.681885 230.141576 
" clip-path="url(#p282941c733)" style="fill: none; stroke: #ff7f0e; stroke-width: 1.5"/>
    <path d="M 286.879877 268.053752 
L 286.879877 265.911503 
" clip-path="url(#p282941c733)" style="fill: none; stroke: #ff7f0e; stroke-width: 1.5"/>
    <path d="M 233.077868 299.005235 
L 233.077868 296.850254 
" clip-path="url(#p282941c733)" style="fill: none; stroke: #ff7f0e; stroke-width: 1.5"/>
    <path d="M 179.27586 333.057161 
L 179.27586 330.887263 
" clip-path="url(#p282941c733)" style="fill: none; stroke: #ff7f0e; stroke-width: 1.5"/>
    <path d="M 125.473851 363.8475 
L 125.473851 361.666825 
" clip-path="url(#p282941c733)" style="fill: none; stroke: #ff7f0e; stroke-width: 1.5"/>
   </g>
   <g id="line2d_31">
    <defs>
     <path id="m3562f332c3" d="M 5 0 
L -5 -0 
" style="stroke: #ff7f0e"/>
    </defs>
    <g clip-path="url(#p282941c733)">
     <use xlink:href="#m3562f332c3" x="663.493936" y="35.101137" style="fill: #ff7f0e; stroke: #ff7f0e"/>
     <use xlink:href="#m3562f332c3" x="609.691928" y="67.759024" style="fill: #ff7f0e; stroke: #ff7f0e"/>
     <use xlink:href="#m3562f332c3" x="555.889919" y="101.796033" style="fill: #ff7f0e; stroke: #ff7f0e"/>
     <use xlink:href="#m3562f332c3" x="502.087911" y="134.82142" style="fill: #ff7f0e; stroke: #ff7f0e"/>
     <use xlink:href="#m3562f332c3" x="448.285902" y="168.504712" style="fill: #ff7f0e; stroke: #ff7f0e"/>
     <use xlink:href="#m3562f332c3" x="340.681885" y="232.273563" style="fill: #ff7f0e; stroke: #ff7f0e"/>
     <use xlink:href="#m3562f332c3" x="286.879877" y="268.053752" style="fill: #ff7f0e; stroke: #ff7f0e"/>
     <use xlink:href="#m3562f332c3" x="233.077868" y="299.005235" style="fill: #ff7f0e; stroke: #ff7f0e"/>
     <use xlink:href="#m3562f332c3" x="179.27586" y="333.057161" style="fill: #ff7f0e; stroke: #ff7f0e"/>
     <use xlink:href="#m3562f332c3" x="125.473851" y="363.8475" style="fill: #ff7f0e; stroke: #ff7f0e"/>
    </g>
   </g>
   <g id="line2d_32">
    <g clip-path="url(#p282941c733)">
     <use xlink:href="#m3562f332c3" x="663.493936" y="32.919972" style="fill: #ff7f0e; stroke: #ff7f0e"/>
     <use xlink:href="#m3562f332c3" x="609.691928" y="65.589127" style="fill: #ff7f0e; stroke: #ff7f0e"/>
     <use xlink:href="#m3562f332c3" x="555.889919" y="99.641053" style="fill: #ff7f0e; stroke: #ff7f0e"/>
     <use xlink:href="#m3562f332c3" x="502.087911" y="132.679928" style="fill: #ff7f0e; stroke: #ff7f0e"/>
     <use xlink:href="#m3562f332c3" x="448.285902" y="166.372724" style="fill: #ff7f0e; stroke: #ff7f0e"/>
     <use xlink:href="#m3562f332c3" x="340.681885" y="230.141576" style="fill: #ff7f0e; stroke: #ff7f0e"/>
     <use xlink:href="#m3562f332c3" x="286.879877" y="265.911503" style="fill: #ff7f0e; stroke: #ff7f0e"/>
     <use xlink:href="#m3562f332c3" x="233.077868" y="296.850254" style="fill: #ff7f0e; stroke: #ff7f0e"/>
     <use xlink:href="#m3562f332c3" x="179.27586" y="330.887263" style="fill: #ff7f0e; stroke: #ff7f0e"/>
     <use xlink:href="#m3562f332c3" x="125.473851" y="361.666825" style="fill: #ff7f0e; stroke: #ff7f0e"/>
    </g>
   </g>
   <g id="LineCollection_3">
    <path d="M 663.493936 41.323512 
L 663.493936 40.4891 
" clip-path="url(#p282941c733)" style="fill: none; stroke: #2ca02c; stroke-width: 1.5"/>
    <path d="M 609.691928 73.243043 
L 609.691928 72.413205 
" clip-path="url(#p282941c733)" style="fill: none; stroke: #2ca02c; stroke-width: 1.5"/>
    <path d="M 555.889919 104.84342 
L 555.889919 104.018927 
" clip-path="url(#p282941c733)" style="fill: none; stroke: #2ca02c; stroke-width: 1.5"/>
    <path d="M 502.087911 136.531616 
L 502.087911 135.711984 
" clip-path="url(#p282941c733)" style="fill: none; stroke: #2ca02c; stroke-width: 1.5"/>
    <path d="M 448.285902 167.989542 
L 448.285902 167.173238 
" clip-path="url(#p282941c733)" style="fill: none; stroke: #2ca02c; stroke-width: 1.5"/>
    <path d="M 340.681885 231.47305 
L 340.681885 230.656745 
" clip-path="url(#p282941c733)" style="fill: none; stroke: #2ca02c; stroke-width: 1.5"/>
    <path d="M 286.879877 262.934303 
L 286.879877 262.114671 
" clip-path="url(#p282941c733)" style="fill: none; stroke: #2ca02c; stroke-width: 1.5"/>
    <path d="M 233.077868 294.627361 
L 233.077868 293.802867 
" clip-path="url(#p282941c733)" style="fill: none; stroke: #2ca02c; stroke-width: 1.5"/>
    <path d="M 179.27586 325.474805 
L 179.27586 324.645091 
" clip-path="url(#p282941c733)" style="fill: none; stroke: #2ca02c; stroke-width: 1.5"/>
    <path d="M 125.473851 358.157188 
L 125.473851 357.322775 
" clip-path="url(#p282941c733)" style="fill: none; stroke: #2ca02c; stroke-width: 1.5"/>
   </g>
   <g id="line2d_33">
    <defs>
     <path id="m70de652310" d="M 5 0 
L -5 -0 
" style="stroke: #2ca02c"/>
    </defs>
    <g clip-path="url(#p282941c733)">
     <use xlink:href="#m70de652310" x="663.493936" y="41.323512" style="fill: #2ca02c; stroke: #2ca02c"/>
     <use xlink:href="#m70de652310" x="609.691928" y="73.243043" style="fill: #2ca02c; stroke: #2ca02c"/>
     <use xlink:href="#m70de652310" x="555.889919" y="104.84342" style="fill: #2ca02c; stroke: #2ca02c"/>
     <use xlink:href="#m70de652310" x="502.087911" y="136.531616" style="fill: #2ca02c; stroke: #2ca02c"/>
     <use xlink:href="#m70de652310" x="448.285902" y="167.989542" style="fill: #2ca02c; stroke: #2ca02c"/>
     <use xlink:href="#m70de652310" x="340.681885" y="231.47305" style="fill: #2ca02c; stroke: #2ca02c"/>
     <use xlink:href="#m70de652310" x="286.879877" y="262.934303" style="fill: #2ca02c; stroke: #2ca02c"/>
     <use xlink:href="#m70de652310" x="233.077868" y="294.627361" style="fill: #2ca02c; stroke: #2ca02c"/>
     <use xlink:href="#m70de652310" x="179.27586" y="325.474805" style="fill: #2ca02c; stroke: #2ca02c"/>
     <use xlink:href="#m70de652310" x="125.473851" y="358.157188" style="fill: #2ca02c; stroke: #2ca02c"/>
    </g>
   </g>
   <g id="line2d_34">
    <g clip-path="url(#p282941c733)">
     <use xlink:href="#m70de652310" x="663.493936" y="40.4891" style="fill: #2ca02c; stroke: #2ca02c"/>
     <use xlink:href="#m70de652310" x="609.691928" y="72.413205" style="fill: #2ca02c; stroke: #2ca02c"/>
     <use xlink:href="#m70de652310" x="555.889919" y="104.018927" style="fill: #2ca02c; stroke: #2ca02c"/>
     <use xlink:href="#m70de652310" x="502.087911" y="135.711984" style="fill: #2ca02c; stroke: #2ca02c"/>
     <use xlink:href="#m70de652310" x="448.285902" y="167.173238" style="fill: #2ca02c; stroke: #2ca02c"/>
     <use xlink:href="#m70de652310" x="340.681885" y="230.656745" style="fill: #2ca02c; stroke: #2ca02c"/>
     <use xlink:href="#m70de652310" x="286.879877" y="262.114671" style="fill: #2ca02c; stroke: #2ca02c"/>
     <use xlink:href="#m70de652310" x="233.077868" y="293.802867" style="fill: #2ca02c; stroke: #2ca02c"/>
     <use xlink:href="#m70de652310" x="179.27586" y="324.645091" style="fill: #2ca02c; stroke: #2ca02c"/>
     <use xlink:href="#m70de652310" x="125.473851" y="357.322775" style="fill: #2ca02c; stroke: #2ca02c"/>
    </g>
   </g>
   <g id="line2d_35">
    <defs>
     <path id="m629c6f390b" d="M 0 4.5 
C 1.193414 4.5 2.338109 4.025852 3.181981 3.181981 
C 4.025852 2.338109 4.5 1.193414 4.5 0 
C 4.5 -1.193414 4.025852 -2.338109 3.181981 -3.181981 
C 2.338109 -4.025852 1.193414 -4.5 0 -4.5 
C -1.193414 -4.5 -2.338109 -4.025852 -3.181981 -3.181981 
C -4.025852 -2.338109 -4.5 -1.193414 -4.5 0 
C -4.5 1.193414 -4.025852 2.338109 -3.181981 3.181981 
C -2.338109 4.025852 -1.193414 4.5 0 4.5 
z
" style="stroke: #1f77b4"/>
    </defs>
    <g clip-path="url(#p282941c733)">
     <use xlink:href="#m629c6f390b" x="663.493936" y="44.455963" style="fill: #1f77b4; stroke: #1f77b4"/>
     <use xlink:href="#m629c6f390b" x="609.691928" y="75.726338" style="fill: #1f77b4; stroke: #1f77b4"/>
     <use xlink:href="#m629c6f390b" x="555.889919" y="108.161987" style="fill: #1f77b4; stroke: #1f77b4"/>
     <use xlink:href="#m629c6f390b" x="502.087911" y="138.12937" style="fill: #1f77b4; stroke: #1f77b4"/>
     <use xlink:href="#m629c6f390b" x="448.285902" y="172.004114" style="fill: #1f77b4; stroke: #1f77b4"/>
     <use xlink:href="#m629c6f390b" x="340.681885" y="230.048037" style="fill: #1f77b4; stroke: #1f77b4"/>
     <use xlink:href="#m629c6f390b" x="286.879877" y="260.516917" style="fill: #1f77b4; stroke: #1f77b4"/>
     <use xlink:href="#m629c6f390b" x="233.077868" y="290.4843" style="fill: #1f77b4; stroke: #1f77b4"/>
     <use xlink:href="#m629c6f390b" x="179.27586" y="322.919949" style="fill: #1f77b4; stroke: #1f77b4"/>
     <use xlink:href="#m629c6f390b" x="125.473851" y="354.190324" style="fill: #1f77b4; stroke: #1f77b4"/>
    </g>
   </g>
   <g id="line2d_36">
    <defs>
     <path id="m2abc680132" d="M -4.5 4.5 
L 4.5 4.5 
L 4.5 -4.5 
L -4.5 -4.5 
z
" style="stroke: #ff7f0e; stroke-linejoin: miter"/>
    </defs>
    <g clip-path="url(#p282941c733)">
     <use xlink:href="#m2abc680132" x="663.493936" y="34.010555" style="fill: #ff7f0e; stroke: #ff7f0e; stroke-linejoin: miter"/>
     <use xlink:href="#m2abc680132" x="609.691928" y="66.674075" style="fill: #ff7f0e; stroke: #ff7f0e; stroke-linejoin: miter"/>
     <use xlink:href="#m2abc680132" x="555.889919" y="100.718543" style="fill: #ff7f0e; stroke: #ff7f0e; stroke-linejoin: miter"/>
     <use xlink:href="#m2abc680132" x="502.087911" y="133.750674" style="fill: #ff7f0e; stroke: #ff7f0e; stroke-linejoin: miter"/>
     <use xlink:href="#m2abc680132" x="448.285902" y="167.438718" style="fill: #ff7f0e; stroke: #ff7f0e; stroke-linejoin: miter"/>
     <use xlink:href="#m2abc680132" x="340.681885" y="231.207569" style="fill: #ff7f0e; stroke: #ff7f0e; stroke-linejoin: miter"/>
     <use xlink:href="#m2abc680132" x="286.879877" y="266.982628" style="fill: #ff7f0e; stroke: #ff7f0e; stroke-linejoin: miter"/>
     <use xlink:href="#m2abc680132" x="233.077868" y="297.927745" style="fill: #ff7f0e; stroke: #ff7f0e; stroke-linejoin: miter"/>
     <use xlink:href="#m2abc680132" x="179.27586" y="331.972212" style="fill: #ff7f0e; stroke: #ff7f0e; stroke-linejoin: miter"/>
     <use xlink:href="#m2abc680132" x="125.473851" y="362.757162" style="fill: #ff7f0e; stroke: #ff7f0e; stroke-linejoin: miter"/>
    </g>
   </g>
   <g id="line2d_37">
    <defs>
     <path id="m2433886cca" d="M 0 4.5 
C 1.193414 4.5 2.338109 4.025852 3.181981 3.181981 
C 4.025852 2.338109 4.5 1.193414 4.5 0 
C 4.5 -1.193414 4.025852 -2.338109 3.181981 -3.181981 
C 2.338109 -4.025852 1.193414 -4.5 0 -4.5 
C -1.193414 -4.5 -2.338109 -4.025852 -3.181981 -3.181981 
C -4.025852 -2.338109 -4.5 -1.193414 -4.5 0 
C -4.5 1.193414 -4.025852 2.338109 -3.181981 3.181981 
C -2.338109 4.025852 -1.193414 4.5 0 4.5 
z
" style="stroke: #2ca02c"/>
    </defs>
    <g clip-path="url(#p282941c733)">
     <use xlink:href="#m2433886cca" x="663.493936" y="40.906306" style="fill: #2ca02c; stroke: #2ca02c"/>
     <use xlink:href="#m2433886cca" x="609.691928" y="72.828124" style="fill: #2ca02c; stroke: #2ca02c"/>
     <use xlink:href="#m2433886cca" x="555.889919" y="104.431173" style="fill: #2ca02c; stroke: #2ca02c"/>
     <use xlink:href="#m2433886cca" x="502.087911" y="136.1218" style="fill: #2ca02c; stroke: #2ca02c"/>
     <use xlink:href="#m2433886cca" x="448.285902" y="167.58139" style="fill: #2ca02c; stroke: #2ca02c"/>
     <use xlink:href="#m2433886cca" x="340.681885" y="231.064898" style="fill: #2ca02c; stroke: #2ca02c"/>
     <use xlink:href="#m2433886cca" x="286.879877" y="262.524487" style="fill: #2ca02c; stroke: #2ca02c"/>
     <use xlink:href="#m2433886cca" x="233.077868" y="294.215114" style="fill: #2ca02c; stroke: #2ca02c"/>
     <use xlink:href="#m2433886cca" x="179.27586" y="325.059948" style="fill: #2ca02c; stroke: #2ca02c"/>
     <use xlink:href="#m2433886cca" x="125.473851" y="357.739982" style="fill: #2ca02c; stroke: #2ca02c"/>
    </g>
   </g>
   <g id="patch_3">
    <path d="M 68.981743 391.361391 
L 68.981743 7.2 
" style="fill: none; stroke: #000000; stroke-width: 1.2; stroke-linejoin: miter; stroke-linecap: square"/>
   </g>
   <g id="patch_4">
    <path d="M 719.986045 391.361391 
L 719.986045 7.2 
" style="fill: none; stroke: #000000; stroke-width: 1.2; stroke-linejoin: miter; stroke-linecap: square"/>
   </g>
   <g id="patch_5">
    <path d="M 68.981743 391.361391 
L 719.986045 391.361391 
" style="fill: none; stroke: #000000; stroke-width: 1.2; stroke-linejoin: miter; stroke-linecap: square"/>
   </g>
   <g id="patch_6">
    <path d="M 68.981743 7.2 
L 719.986045 7.2 
" style="fill: none; stroke: #000000; stroke-width: 1.2; stroke-linejoin: miter; stroke-linecap: square"/>
   </g>
   <g id="line2d_38">
    <path d="M 98.572847 373.89951 
L 690.394941 24.661881 
L 690.394941 24.661881 
" clip-path="url(#p282941c733)" style="fill: none; stroke: #ff0000; stroke-width: 2.5; stroke-linecap: square"/>
   </g>
   <g id="legend_1">
    <g id="patch_7">
     <path d="M 80.181743 150.652253 
L 308.421655 150.652253 
Q 311.621655 150.652253 311.621655 147.452253 
L 311.621655 18.4 
Q 311.621655 15.2 308.421655 15.2 
L 80.181743 15.2 
Q 76.981743 15.2 76.981743 18.4 
L 76.981743 147.452253 
Q 76.981743 150.652253 80.181743 150.652253 
z
" style="fill: #ffffff; opacity: 0.95; stroke: #000000; stroke-linejoin: miter"/>
    </g>
    <g id="line2d_39">
     <path d="M 83.381743 46.950584 
L 99.381743 46.950584 
L 115.381743 46.950584 
" style="fill: none; stroke: #ff0000; stroke-width: 2.5; stroke-linecap: square"/>
    </g>
    <g id="text_17">
     <!-- Fit: $y = m \cdot n + b$ -->
     <g transform="translate(128.181743 32.669588) scale(0.16 -0.16)">
      <defs>
       <path id="CMR17-46" d="M 3482 4325 
L 326 4325 
L 326 4160 
C 768 4160 838 4160 838 3874 
L 838 446 
C 838 160 768 160 326 160 
L 326 0 
C 512 0 870 0 1069 0 
C 1331 0 1638 0 1901 0 
L 1901 160 
L 1760 160 
C 1274 160 1261 223 1261 452 
L 1261 2075 
L 1837 2075 
C 2432 2075 2490 1865 2490 1332 
L 2605 1332 
L 2605 2987 
L 2490 2987 
C 2490 2450 2432 2240 1837 2240 
L 1261 2240 
L 1261 3911 
C 1261 4128 1274 4160 1530 4160 
L 2355 4160 
C 3322 4160 3430 3765 3520 2916 
L 3635 2916 
L 3482 4325 
z
" transform="scale(0.015625)"/>
       <path id="CMR17-3a" d="M 1062 2491 
C 1062 2650 934 2752 800 2752 
C 672 2752 538 2650 538 2491 
C 538 2332 666 2230 800 2230 
C 928 2230 1062 2332 1062 2491 
z
M 1062 261 
C 1062 420 934 522 800 522 
C 672 522 538 420 538 261 
C 538 102 666 0 800 0 
C 928 0 1062 102 1062 261 
z
" transform="scale(0.015625)"/>
       <path id="CMMI12-79" d="M 1683 -700 
C 1510 -939 1261 -1152 947 -1152 
C 870 -1152 563 -1152 467 -889 
C 486 -895 518 -895 531 -895 
C 723 -895 851 -729 851 -582 
C 851 -435 730 -384 634 -384 
C 531 -384 307 -458 307 -759 
C 307 -1071 582 -1286 947 -1286 
C 1587 -1286 2234 -700 2413 6 
L 3040 2485 
C 3046 2517 3059 2556 3059 2594 
C 3059 2689 2982 2753 2886 2753 
C 2829 2753 2694 2727 2643 2535 
L 2170 658 
C 2138 543 2138 530 2086 460 
C 1958 281 1747 64 1440 64 
C 1082 64 1050 415 1050 588 
C 1050 952 1222 1443 1395 1903 
C 1466 2088 1504 2178 1504 2305 
C 1504 2574 1312 2816 998 2816 
C 410 2816 173 1890 173 1839 
C 173 1814 198 1782 243 1782 
C 301 1782 307 1807 333 1897 
C 486 2433 730 2689 979 2689 
C 1037 2689 1146 2689 1146 2478 
C 1146 2312 1075 2127 979 1884 
C 666 1047 666 837 666 683 
C 666 77 1101 -64 1421 -64 
C 1606 -64 1837 -6 2061 230 
L 2067 224 
C 1971 -147 1907 -392 1683 -700 
z
" transform="scale(0.015625)"/>
       <path id="CMR17-3d" d="M 4115 2017 
C 4211 2017 4307 2017 4307 2125 
C 4307 2240 4198 2240 4090 2240 
L 512 2240 
C 403 2240 294 2240 294 2125 
C 294 2017 390 2017 486 2017 
L 4115 2017 
z
M 4090 896 
C 4198 896 4307 896 4307 1011 
C 4307 1119 4211 1119 4115 1119 
L 486 1119 
C 390 1119 294 1119 294 1011 
C 294 896 403 896 512 896 
L 4090 896 
z
" transform="scale(0.015625)"/>
       <path id="CMMI12-6d" d="M 1318 1871 
C 1331 1910 1491 2229 1728 2433 
C 1894 2586 2112 2689 2362 2689 
C 2618 2689 2707 2497 2707 2242 
C 2707 2203 2707 2076 2630 1775 
L 2470 1118 
C 2419 926 2298 453 2285 383 
C 2259 287 2221 121 2221 96 
C 2221 6 2291 -64 2387 -64 
C 2579 -64 2611 83 2669 313 
L 3053 1839 
C 3066 1890 3398 2689 4102 2689 
C 4358 2689 4448 2497 4448 2242 
C 4448 1884 4198 1188 4058 805 
C 4000 651 3968 568 3968 453 
C 3968 166 4166 -64 4474 -64 
C 5069 -64 5293 875 5293 913 
C 5293 945 5267 971 5229 971 
C 5171 971 5165 952 5133 843 
C 4986 332 4749 64 4493 64 
C 4429 64 4326 64 4326 269 
C 4326 436 4403 640 4429 710 
C 4544 1018 4832 1773 4832 2145 
C 4832 2528 4608 2816 4122 2816 
C 3693 2816 3347 2574 3091 2197 
C 3072 2542 2861 2816 2381 2816 
C 1811 2816 1510 2415 1395 2255 
C 1376 2618 1114 2816 832 2816 
C 646 2816 499 2727 378 2484 
C 262 2254 173 1865 173 1839 
C 173 1814 198 1782 243 1782 
C 294 1782 301 1788 339 1935 
C 435 2312 557 2689 813 2689 
C 960 2689 1011 2586 1011 2395 
C 1011 2254 947 2005 902 1807 
L 723 1118 
C 698 996 627 709 595 594 
C 550 428 480 128 480 96 
C 480 6 550 -64 646 -64 
C 723 -64 813 -26 864 70 
C 877 102 934 326 966 453 
L 1107 1028 
L 1318 1871 
z
" transform="scale(0.015625)"/>
       <path id="CMSY10-1" d="M 1229 1619 
C 1229 1805 1075 1958 890 1958 
C 704 1958 550 1805 550 1619 
C 550 1433 704 1280 890 1280 
C 1075 1280 1229 1433 1229 1619 
z
" transform="scale(0.015625)"/>
       <path id="CMR17-2b" d="M 2413 1472 
L 4109 1472 
C 4198 1472 4307 1472 4307 1580 
C 4307 1695 4205 1695 4109 1695 
L 2413 1695 
L 2413 3386 
C 2413 3475 2413 3584 2304 3584 
C 2189 3584 2189 3482 2189 3386 
L 2189 1695 
L 493 1695 
C 403 1695 294 1695 294 1587 
C 294 1472 397 1472 493 1472 
L 2189 1472 
L 2189 -218 
C 2189 -307 2189 -416 2298 -416 
C 2413 -416 2413 -314 2413 -218 
L 2413 1472 
z
" transform="scale(0.015625)"/>
       <path id="CMMI12-62" d="M 1478 4257 
C 1485 4283 1498 4321 1498 4352 
C 1498 4416 1434 4416 1421 4416 
C 1414 4416 1184 4393 1069 4377 
C 960 4377 864 4358 749 4358 
C 595 4345 550 4339 550 4224 
C 550 4160 614 4160 678 4160 
C 1005 4160 1005 4103 1005 4040 
C 1005 3996 954 3811 928 3696 
L 774 3085 
C 710 2831 346 1387 320 1272 
C 288 1114 288 1005 288 922 
C 288 274 653 -64 1069 -64 
C 1811 -64 2579 888 2579 1814 
C 2579 2401 2246 2816 1766 2816 
C 1434 2816 1133 2542 1011 2414 
L 1478 4257 
z
M 1075 64 
C 870 64 646 217 646 715 
C 646 926 666 1047 781 1494 
C 800 1577 902 1986 928 2069 
C 941 2120 1318 2689 1754 2689 
C 2035 2689 2163 2408 2163 2076 
C 2163 1769 1984 1047 1824 715 
C 1664 370 1370 64 1075 64 
z
" transform="scale(0.015625)"/>
      </defs>
      <use xlink:href="#CMR17-46" transform="scale(0.996264)"/>
      <use xlink:href="#CMR17-69" transform="translate(59.983847 0) scale(0.996264)"/>
      <use xlink:href="#CMR17-74" transform="translate(84.854905 0) scale(0.996264)"/>
      <use xlink:href="#CMR17-3a" transform="translate(120.135673 0) scale(0.996264)"/>
      <use xlink:href="#CMMI12-79" transform="translate(185.492392 0) scale(0.996264)"/>
      <use xlink:href="#CMR17-3d" transform="translate(264.305181 0) scale(0.996264)"/>
      <use xlink:href="#CMMI12-6d" transform="translate(363.693978 0) scale(0.996264)"/>
      <use xlink:href="#CMSY10-1" transform="translate(471.16041 0) scale(0.996264)"/>
      <use xlink:href="#CMMI12-6e" transform="translate(520.973702 0) scale(0.996264)"/>
      <use xlink:href="#CMR17-2b" transform="translate(601.342956 0) scale(0.996264)"/>
      <use xlink:href="#CMMI12-62" transform="translate(695.196951 0) scale(0.996264)"/>
     </g>
     <!-- $m = (0.05463 \pm 0.00017)$ -->
     <g transform="translate(128.181743 50.115266) scale(0.16 -0.16)">
      <defs>
       <path id="CMR17-35" d="M 730 3692 
C 794 3666 1056 3584 1325 3584 
C 1920 3584 2246 3911 2432 4100 
C 2432 4157 2432 4192 2394 4192 
C 2387 4192 2374 4192 2323 4163 
C 2099 4058 1837 3973 1517 3973 
C 1325 3973 1037 3999 723 4139 
C 653 4171 640 4171 634 4171 
C 602 4171 595 4164 595 4037 
L 595 2203 
C 595 2089 595 2057 659 2057 
C 691 2057 704 2070 736 2114 
C 941 2401 1222 2522 1542 2522 
C 1766 2522 2246 2382 2246 1289 
C 2246 1085 2246 715 2054 421 
C 1894 159 1645 25 1370 25 
C 947 25 518 320 403 814 
C 429 807 480 795 506 795 
C 589 795 749 840 749 1038 
C 749 1210 627 1280 506 1280 
C 358 1280 262 1190 262 1011 
C 262 454 704 -128 1382 -128 
C 2042 -128 2669 440 2669 1264 
C 2669 2030 2170 2624 1549 2624 
C 1222 2624 947 2503 730 2274 
L 730 3692 
z
" transform="scale(0.015625)"/>
       <path id="CMSY10-6" d="M 2618 1984 
L 4397 1984 
C 4506 1984 4621 1984 4621 2112 
C 4621 2240 4506 2240 4397 2240 
L 2618 2240 
L 2618 4018 
C 2618 4121 2618 4256 2490 4256 
C 2362 4256 2362 4140 2362 4038 
L 2362 2240 
L 576 2240 
C 467 2240 352 2240 352 2112 
C 352 1984 467 1984 576 1984 
L 2362 1984 
L 2362 256 
L 576 256 
C 467 256 352 256 352 128 
C 352 0 467 0 576 0 
L 4397 0 
C 4506 0 4621 0 4621 128 
C 4621 256 4506 256 4397 256 
L 2618 256 
L 2618 1984 
z
" transform="scale(0.015625)"/>
       <path id="CMR17-37" d="M 2886 3941 
L 2886 4081 
L 1382 4081 
C 634 4081 621 4165 595 4288 
L 480 4288 
L 294 3094 
L 410 3094 
C 429 3215 474 3540 550 3661 
C 589 3712 1062 3712 1171 3712 
L 2579 3712 
L 1869 2661 
C 1395 1954 1069 999 1069 165 
C 1069 89 1069 -128 1299 -128 
C 1530 -128 1530 89 1530 171 
L 1530 465 
C 1530 1508 1709 2196 2003 2636 
L 2886 3941 
z
" transform="scale(0.015625)"/>
      </defs>
      <use xlink:href="#CMMI12-6d" transform="scale(0.996264)"/>
      <use xlink:href="#CMR17-3d" transform="translate(113.001233 0) scale(0.996264)"/>
      <use xlink:href="#CMR17-28" transform="translate(212.39003 0) scale(0.996264)"/>
      <use xlink:href="#CMR17-30" transform="translate(247.670798 0) scale(0.996264)"/>
      <use xlink:href="#CMMI12-3a" transform="translate(293.361275 0) scale(0.996264)"/>
      <use xlink:href="#CMR17-30" transform="translate(320.458452 0) scale(0.996264)"/>
      <use xlink:href="#CMR17-35" transform="translate(366.148929 0) scale(0.996264)"/>
      <use xlink:href="#CMR17-34" transform="translate(411.839407 0) scale(0.996264)"/>
      <use xlink:href="#CMR17-36" transform="translate(457.529884 0) scale(0.996264)"/>
      <use xlink:href="#CMR17-33" transform="translate(503.220361 0) scale(0.996264)"/>
      <use xlink:href="#CMSY10-6" transform="translate(571.050045 0) scale(0.996264)"/>
      <use xlink:href="#CMR17-30" transform="translate(670.67672 0) scale(0.996264)"/>
      <use xlink:href="#CMMI12-3a" transform="translate(716.367197 0) scale(0.996264)"/>
      <use xlink:href="#CMR17-30" transform="translate(743.464374 0) scale(0.996264)"/>
      <use xlink:href="#CMR17-30" transform="translate(789.154851 0) scale(0.996264)"/>
      <use xlink:href="#CMR17-30" transform="translate(834.845328 0) scale(0.996264)"/>
      <use xlink:href="#CMR17-31" transform="translate(880.535805 0) scale(0.996264)"/>
      <use xlink:href="#CMR17-37" transform="translate(926.226282 0) scale(0.996264)"/>
      <use xlink:href="#CMR17-29" transform="translate(971.916759 0) scale(0.996264)"/>
     </g>
     <!-- $b = (0.00007 \pm 0.00055)$ -->
     <g transform="translate(128.181743 68.446524) scale(0.16 -0.16)">
      <use xlink:href="#CMMI12-62" transform="scale(0.996264)"/>
      <use xlink:href="#CMR17-3d" transform="translate(69.149883 0) scale(0.996264)"/>
      <use xlink:href="#CMR17-28" transform="translate(168.53868 0) scale(0.996264)"/>
      <use xlink:href="#CMR17-30" transform="translate(203.819448 0) scale(0.996264)"/>
      <use xlink:href="#CMMI12-3a" transform="translate(249.509925 0) scale(0.996264)"/>
      <use xlink:href="#CMR17-30" transform="translate(276.607102 0) scale(0.996264)"/>
      <use xlink:href="#CMR17-30" transform="translate(322.297579 0) scale(0.996264)"/>
      <use xlink:href="#CMR17-30" transform="translate(367.988056 0) scale(0.996264)"/>
      <use xlink:href="#CMR17-30" transform="translate(413.678533 0) scale(0.996264)"/>
      <use xlink:href="#CMR17-37" transform="translate(459.36901 0) scale(0.996264)"/>
      <use xlink:href="#CMSY10-6" transform="translate(527.198695 0) scale(0.996264)"/>
      <use xlink:href="#CMR17-30" transform="translate(626.825369 0) scale(0.996264)"/>
      <use xlink:href="#CMMI12-3a" transform="translate(672.515846 0) scale(0.996264)"/>
      <use xlink:href="#CMR17-30" transform="translate(699.613023 0) scale(0.996264)"/>
      <use xlink:href="#CMR17-30" transform="translate(745.303501 0) scale(0.996264)"/>
      <use xlink:href="#CMR17-30" transform="translate(790.993978 0) scale(0.996264)"/>
      <use xlink:href="#CMR17-35" transform="translate(836.684455 0) scale(0.996264)"/>
      <use xlink:href="#CMR17-35" transform="translate(882.374932 0) scale(0.996264)"/>
      <use xlink:href="#CMR17-29" transform="translate(928.065409 0) scale(0.996264)"/>
     </g>
    </g>
    <g id="LineCollection_4">
     <path d="M 99.381743 94.786748 
L 99.381743 78.786748 
" style="fill: none; stroke: #1f77b4; stroke-width: 1.5"/>
    </g>
    <g id="line2d_40">
     <g>
      <use xlink:href="#m0248b808c8" x="99.381743" y="94.786748" style="fill: #1f77b4; stroke: #1f77b4"/>
     </g>
    </g>
    <g id="line2d_41">
     <g>
      <use xlink:href="#m0248b808c8" x="99.381743" y="78.786748" style="fill: #1f77b4; stroke: #1f77b4"/>
     </g>
    </g>
    <g id="line2d_42"/>
    <g id="line2d_43">
     <g>
      <use xlink:href="#m629c6f390b" x="99.381743" y="86.786748" style="fill: #1f77b4; stroke: #1f77b4"/>
     </g>
    </g>
    <g id="text_18">
     <!-- Messpunkte ($l = 17$ cm) -->
     <g transform="translate(128.181743 92.386748) scale(0.16 -0.16)">
      <defs>
       <path id="CMR17-4d" d="M 1338 4224 
C 1299 4320 1293 4320 1158 4320 
L 339 4320 
L 339 4160 
C 781 4160 851 4160 851 3875 
L 851 610 
C 851 451 851 153 339 153 
L 339 -13 
C 486 0 755 0 915 0 
C 1075 0 1344 0 1491 -13 
L 1491 153 
C 979 153 979 451 979 610 
L 979 4135 
L 986 4135 
L 2490 89 
C 2515 25 2528 -13 2579 -13 
C 2630 -13 2643 25 2669 89 
L 4186 4166 
L 4192 4166 
L 4192 438 
C 4192 153 4122 153 3680 153 
L 3680 -13 
C 3853 0 4198 0 4384 0 
C 4570 0 4922 0 5094 -13 
L 5094 153 
C 4653 153 4582 153 4582 438 
L 4582 3875 
C 4582 4160 4653 4160 5094 4160 
L 5094 4320 
L 4282 4320 
C 4147 4320 4141 4314 4102 4218 
L 2720 502 
L 1338 4224 
z
" transform="scale(0.015625)"/>
       <path id="CMR17-70" d="M 1408 -1063 
C 998 -1063 973 -1037 973 -789 
L 973 402 
C 1158 134 1427 -38 1766 -38 
C 2406 -38 3053 523 3053 1388 
C 3053 2191 2496 2802 1837 2802 
C 1453 2802 1139 2592 960 2338 
L 960 2802 
L 198 2732 
L 198 2567 
C 576 2567 634 2528 634 2223 
L 634 -789 
C 634 -1031 608 -1063 198 -1063 
L 198 -1228 
C 352 -1216 634 -1216 800 -1216 
C 966 -1216 1254 -1216 1408 -1228 
L 1408 -1063 
z
M 973 2012 
C 973 2102 973 2235 1222 2471 
C 1254 2497 1472 2688 1792 2688 
C 2259 2688 2643 2108 2643 1382 
C 2643 656 2234 64 1728 64 
C 1498 64 1248 172 1056 472 
C 973 612 973 650 973 752 
L 973 2012 
z
" transform="scale(0.015625)"/>
       <path id="CMR17-6b" d="M 1670 1673 
C 1664 1686 1632 1724 1632 1743 
C 1632 1756 2086 2171 2144 2222 
C 2509 2528 2739 2560 2906 2560 
L 2906 2733 
C 2867 2733 2854 2733 2848 2720 
L 2534 2720 
C 2355 2720 2080 2720 1907 2733 
L 1907 2566 
C 1997 2559 2061 2508 2061 2419 
C 2061 2291 1933 2170 1926 2170 
L 960 1289 
L 960 4396 
L 198 4326 
L 198 4160 
C 576 4160 634 4122 634 3817 
L 634 426 
C 634 184 608 153 198 153 
L 198 -13 
C 352 0 634 0 794 0 
C 954 0 1235 0 1389 -13 
L 1389 153 
C 979 153 954 178 954 428 
L 954 1130 
L 1395 1532 
L 2042 574 
C 2118 459 2182 369 2182 286 
C 2182 172 2067 153 1990 153 
L 1990 -13 
C 2144 0 2419 0 2579 0 
C 2694 0 2931 0 3040 0 
L 3040 153 
C 2739 153 2669 210 2477 491 
L 1670 1673 
z
" transform="scale(0.015625)"/>
       <path id="CMR17-6d" d="M 4326 1933 
C 4326 2252 4269 2790 3507 2790 
C 3072 2790 2771 2496 2656 2151 
L 2650 2151 
C 2573 2676 2195 2790 1837 2790 
C 1331 2790 1069 2400 973 2144 
L 966 2144 
L 966 2790 
L 211 2720 
L 211 2554 
C 589 2554 646 2515 646 2208 
L 646 428 
C 646 184 621 153 211 153 
L 211 -13 
C 365 0 646 0 813 0 
C 979 0 1267 0 1421 -13 
L 1421 153 
C 1011 153 986 178 986 428 
L 986 1658 
C 986 2247 1344 2688 1792 2688 
C 2266 2688 2317 2266 2317 1958 
L 2317 428 
C 2317 184 2291 153 1882 153 
L 1882 -13 
C 2035 0 2317 0 2483 0 
C 2650 0 2938 0 3091 -13 
L 3091 153 
C 2682 153 2656 178 2656 428 
L 2656 1658 
C 2656 2247 3014 2688 3462 2688 
C 3936 2688 3987 2266 3987 1958 
L 3987 428 
C 3987 184 3962 153 3552 153 
L 3552 -13 
C 3706 0 3987 0 4154 0 
C 4320 0 4608 0 4762 -13 
L 4762 153 
C 4352 153 4326 178 4326 428 
L 4326 1933 
z
" transform="scale(0.015625)"/>
      </defs>
      <use xlink:href="#CMR17-4d" transform="scale(0.996264)"/>
      <use xlink:href="#CMR17-65" transform="translate(84.686941 0) scale(0.996264)"/>
      <use xlink:href="#CMR17-73" transform="translate(125.172601 0) scale(0.996264)"/>
      <use xlink:href="#CMR17-73" transform="translate(160.973939 0) scale(0.996264)"/>
      <use xlink:href="#CMR17-70" transform="translate(196.775276 0) scale(0.996264)"/>
      <use xlink:href="#CMR17-75" transform="translate(247.670646 0) scale(0.996264)"/>
      <use xlink:href="#CMR17-6e" transform="translate(298.566016 0) scale(0.996264)"/>
      <use xlink:href="#CMR17-6b" transform="translate(349.461386 0) scale(0.996264)"/>
      <use xlink:href="#CMR17-74" transform="translate(397.754301 0) scale(0.996264)"/>
      <use xlink:href="#CMR17-65" transform="translate(433.035069 0) scale(0.996264)"/>
      <use xlink:href="#CMR17-28" transform="translate(503.596696 0) scale(0.996264)"/>
      <use xlink:href="#CMMI12-6c" transform="translate(538.877464 0) scale(0.996264)"/>
      <use xlink:href="#CMR17-3d" transform="translate(597.799876 0) scale(0.996264)"/>
      <use xlink:href="#CMR17-31" transform="translate(697.188674 0) scale(0.996264)"/>
      <use xlink:href="#CMR17-37" transform="translate(742.879151 0) scale(0.996264)"/>
      <use xlink:href="#CMR17-63" transform="translate(818.645594 0) scale(0.996264)"/>
      <use xlink:href="#CMR17-6d" transform="translate(859.131255 0) scale(0.996264)"/>
      <use xlink:href="#CMR17-29" transform="translate(936.050844 0) scale(0.996264)"/>
     </g>
    </g>
    <g id="LineCollection_5">
     <path d="M 99.381743 118.726972 
L 99.381743 102.726972 
" style="fill: none; stroke: #ff7f0e; stroke-width: 1.5"/>
    </g>
    <g id="line2d_44">
     <g>
      <use xlink:href="#m3562f332c3" x="99.381743" y="118.726972" style="fill: #ff7f0e; stroke: #ff7f0e"/>
     </g>
    </g>
    <g id="line2d_45">
     <g>
      <use xlink:href="#m3562f332c3" x="99.381743" y="102.726972" style="fill: #ff7f0e; stroke: #ff7f0e"/>
     </g>
    </g>
    <g id="line2d_46"/>
    <g id="line2d_47">
     <g>
      <use xlink:href="#m2abc680132" x="99.381743" y="110.726972" style="fill: #ff7f0e; stroke: #ff7f0e; stroke-linejoin: miter"/>
     </g>
    </g>
    <g id="text_19">
     <!-- Messpunkte ($l = 27.3$ cm) -->
     <g transform="translate(128.181743 116.326972) scale(0.16 -0.16)">
      <use xlink:href="#CMR17-4d" transform="scale(0.996264)"/>
      <use xlink:href="#CMR17-65" transform="translate(84.686941 0) scale(0.996264)"/>
      <use xlink:href="#CMR17-73" transform="translate(125.172601 0) scale(0.996264)"/>
      <use xlink:href="#CMR17-73" transform="translate(160.973939 0) scale(0.996264)"/>
      <use xlink:href="#CMR17-70" transform="translate(196.775276 0) scale(0.996264)"/>
      <use xlink:href="#CMR17-75" transform="translate(247.670646 0) scale(0.996264)"/>
      <use xlink:href="#CMR17-6e" transform="translate(298.566016 0) scale(0.996264)"/>
      <use xlink:href="#CMR17-6b" transform="translate(349.461386 0) scale(0.996264)"/>
      <use xlink:href="#CMR17-74" transform="translate(397.754301 0) scale(0.996264)"/>
      <use xlink:href="#CMR17-65" transform="translate(433.035069 0) scale(0.996264)"/>
      <use xlink:href="#CMR17-28" transform="translate(503.596696 0) scale(0.996264)"/>
      <use xlink:href="#CMMI12-6c" transform="translate(538.877464 0) scale(0.996264)"/>
      <use xlink:href="#CMR17-3d" transform="translate(597.799876 0) scale(0.996264)"/>
      <use xlink:href="#CMR17-32" transform="translate(697.188674 0) scale(0.996264)"/>
      <use xlink:href="#CMR17-37" transform="translate(742.879151 0) scale(0.996264)"/>
      <use xlink:href="#CMMI12-3a" transform="translate(788.569628 0) scale(0.996264)"/>
      <use xlink:href="#CMR17-33" transform="translate(815.666805 0) scale(0.996264)"/>
      <use xlink:href="#CMR17-63" transform="translate(891.433248 0) scale(0.996264)"/>
      <use xlink:href="#CMR17-6d" transform="translate(931.918909 0) scale(0.996264)"/>
      <use xlink:href="#CMR17-29" transform="translate(1008.838499 0) scale(0.996264)"/>
     </g>
    </g>
    <g id="LineCollection_6">
     <path d="M 99.381743 142.667196 
L 99.381743 126.667196 
" style="fill: none; stroke: #2ca02c; stroke-width: 1.5"/>
    </g>
    <g id="line2d_48">
     <g>
      <use xlink:href="#m70de652310" x="99.381743" y="142.667196" style="fill: #2ca02c; stroke: #2ca02c"/>
     </g>
    </g>
    <g id="line2d_49">
     <g>
      <use xlink:href="#m70de652310" x="99.381743" y="126.667196" style="fill: #2ca02c; stroke: #2ca02c"/>
     </g>
    </g>
    <g id="line2d_50"/>
    <g id="line2d_51">
     <g>
      <use xlink:href="#m2433886cca" x="99.381743" y="134.667196" style="fill: #2ca02c; stroke: #2ca02c"/>
     </g>
    </g>
    <g id="text_20">
     <!-- Messpunkte ($l = 71.3$ cm) -->
     <g transform="translate(128.181743 140.267196) scale(0.16 -0.16)">
      <use xlink:href="#CMR17-4d" transform="scale(0.996264)"/>
      <use xlink:href="#CMR17-65" transform="translate(84.686941 0) scale(0.996264)"/>
      <use xlink:href="#CMR17-73" transform="translate(125.172601 0) scale(0.996264)"/>
      <use xlink:href="#CMR17-73" transform="translate(160.973939 0) scale(0.996264)"/>
      <use xlink:href="#CMR17-70" transform="translate(196.775276 0) scale(0.996264)"/>
      <use xlink:href="#CMR17-75" transform="translate(247.670646 0) scale(0.996264)"/>
      <use xlink:href="#CMR17-6e" transform="translate(298.566016 0) scale(0.996264)"/>
      <use xlink:href="#CMR17-6b" transform="translate(349.461386 0) scale(0.996264)"/>
      <use xlink:href="#CMR17-74" transform="translate(397.754301 0) scale(0.996264)"/>
      <use xlink:href="#CMR17-65" transform="translate(433.035069 0) scale(0.996264)"/>
      <use xlink:href="#CMR17-28" transform="translate(503.596696 0) scale(0.996264)"/>
      <use xlink:href="#CMMI12-6c" transform="translate(538.877464 0) scale(0.996264)"/>
      <use xlink:href="#CMR17-3d" transform="translate(597.799876 0) scale(0.996264)"/>
      <use xlink:href="#CMR17-37" transform="translate(697.188674 0) scale(0.996264)"/>
      <use xlink:href="#CMR17-31" transform="translate(742.879151 0) scale(0.996264)"/>
      <use xlink:href="#CMMI12-3a" transform="translate(788.569628 0) scale(0.996264)"/>
      <use xlink:href="#CMR17-33" transform="translate(815.666805 0) scale(0.996264)"/>
      <use xlink:href="#CMR17-63" transform="translate(891.433248 0) scale(0.996264)"/>
      <use xlink:href="#CMR17-6d" transform="translate(931.918909 0) scale(0.996264)"/>
      <use xlink:href="#CMR17-29" transform="translate(1008.838499 0) scale(0.996264)"/>
     </g>
    </g>
   </g>
  </g>
 </g>
 <defs>
  <clipPath id="p282941c733">
   <rect x="68.981743" y="7.2" width="651.004303" height="384.161391"/>
  </clipPath>
 </defs>
</svg>
